<svg width="635" height="65" viewBox="0 0 635 65" fill="none" xmlns="http://www.w3.org/2000/svg">
<mask id="mask0_0_1" style="mask-type:alpha" maskUnits="userSpaceOnUse" x="0" y="0" width="635" height="70">
<path d="M29.968 57.344C24.208 57.344 19.152 56.576 14.8 55.04C10.512 53.504 7.12 51.296 4.624 48.416C2.192 45.536 0.848 42.112 0.592 38.144H12.688C13.2 41.28 14.928 43.68 17.872 45.344C20.88 46.944 24.912 47.744 29.968 47.744C34.832 47.744 38.64 47.104 41.392 45.824C44.144 44.48 45.52 42.432 45.52 39.68C45.52 37.44 44.368 35.776 42.064 34.688C39.824 33.6 36.24 33.056 31.312 33.056H20.56V24.416H31.024C35.44 24.416 38.704 23.744 40.816 22.4C42.992 21.056 44.08 19.392 44.08 17.408C44.08 14.976 42.8 13.12 40.24 11.84C37.68 10.56 34.32 9.92 30.16 9.92C25.552 9.92 21.808 10.656 18.928 12.128C16.048 13.6 14.352 15.808 13.84 18.752H1.744C2.064 15.296 3.376 12.192 5.68 9.44C8.048 6.624 11.344 4.416 15.568 2.816C19.792 1.152 24.816 0.319996 30.64 0.319996C35.952 0.319996 40.56 0.991997 44.464 2.336C48.368 3.68 51.376 5.536 53.488 7.904C55.664 10.208 56.752 12.864 56.752 15.872C56.752 18.304 55.984 20.544 54.448 22.592C52.976 24.64 50.64 26.272 47.44 27.488C44.304 28.704 40.24 29.312 35.248 29.312V27.68C42.544 27.424 48.208 28.416 52.24 30.656C56.272 32.832 58.288 36.096 58.288 40.448C58.288 43.712 57.168 46.624 54.928 49.184C52.752 51.744 49.552 53.76 45.328 55.232C41.104 56.64 35.984 57.344 29.968 57.344ZM119.343 56L117.231 35.84L119.727 28.832L117.231 21.92L119.343 1.664H132.207L129.327 28.832L132.207 56H119.343ZM123.183 28.832C121.967 34.528 119.951 39.52 117.135 43.808C114.319 48.096 110.831 51.424 106.671 53.792C102.575 56.16 97.9993 57.344 92.9433 57.344C87.6313 57.344 82.9273 56.16 78.8313 53.792C74.7353 51.36 71.5353 48 69.2313 43.712C66.9273 39.424 65.7753 34.464 65.7753 28.832C65.7753 23.136 66.9273 18.176 69.2313 13.952C71.5353 9.664 74.7353 6.336 78.8313 3.96799C82.9273 1.536 87.6313 0.319996 92.9433 0.319996C97.9993 0.319996 102.575 1.504 106.671 3.872C110.831 6.24 114.319 9.568 117.135 13.856C120.015 18.08 122.031 23.072 123.183 28.832ZM78.4473 28.832C78.4473 32.48 79.1833 35.712 80.6553 38.528C82.1913 41.28 84.2713 43.456 86.8953 45.056C89.5193 46.592 92.5273 47.36 95.9193 47.36C99.3753 47.36 102.575 46.592 105.519 45.056C108.463 43.456 111.055 41.28 113.295 38.528C115.599 35.712 117.423 32.48 118.767 28.832C117.423 25.184 115.599 21.984 113.295 19.232C111.055 16.416 108.463 14.24 105.519 12.704C102.575 11.104 99.3753 10.304 95.9193 10.304C92.5273 10.304 89.5193 11.104 86.8953 12.704C84.2713 14.24 82.1913 16.416 80.6553 19.232C79.1833 21.984 78.4473 25.184 78.4473 28.832ZM144.218 56V1.664H162.746L185.594 50.048H180.698L203.354 1.664H221.882V56H210.17V5.792H213.434L189.146 56H176.954L152.666 5.984L155.93 5.888V56H144.218ZM235.155 56V1.664H247.635V45.44L243.891 44.096L278.547 1.664H292.755L246.675 56H235.155ZM279.891 56L262.995 29.12L271.731 21.248L294.483 56H279.891ZM349.031 56L346.919 35.84L349.415 28.832L346.919 21.92L349.031 1.664H361.895L359.015 28.832L361.895 56H349.031ZM352.871 28.832C351.655 34.528 349.639 39.52 346.823 43.808C344.007 48.096 340.519 51.424 336.359 53.792C332.263 56.16 327.687 57.344 322.631 57.344C317.319 57.344 312.615 56.16 308.519 53.792C304.423 51.36 301.223 48 298.919 43.712C296.615 39.424 295.463 34.464 295.463 28.832C295.463 23.136 296.615 18.176 298.919 13.952C301.223 9.664 304.423 6.336 308.519 3.96799C312.615 1.536 317.319 0.319996 322.631 0.319996C327.687 0.319996 332.263 1.504 336.359 3.872C340.519 6.24 344.007 9.568 346.823 13.856C349.703 18.08 351.719 23.072 352.871 28.832ZM308.135 28.832C308.135 32.48 308.871 35.712 310.343 38.528C311.879 41.28 313.959 43.456 316.583 45.056C319.207 46.592 322.215 47.36 325.607 47.36C329.063 47.36 332.263 46.592 335.207 45.056C338.151 43.456 340.743 41.28 342.983 38.528C345.287 35.712 347.111 32.48 348.455 28.832C347.111 25.184 345.287 21.984 342.983 19.232C340.743 16.416 338.151 14.24 335.207 12.704C332.263 11.104 329.063 10.304 325.607 10.304C322.215 10.304 319.207 11.104 316.583 12.704C313.959 14.24 311.879 16.416 310.343 19.232C308.871 21.984 308.135 25.184 308.135 28.832ZM444.273 46.4V69.728H433.425V56H379.089V69.728H368.241V46.4H382.257L385.713 46.592H425.361L428.433 46.4H444.273ZM380.337 1.664H434.193V52.352H421.713V5.504L427.473 11.264H386.865L392.241 7.04C392.561 9.856 392.753 12.576 392.817 15.2C392.945 17.76 393.009 20.16 393.009 22.4C393.009 31.744 391.729 39.072 389.169 44.384C386.673 49.696 383.153 52.352 378.609 52.352L373.521 48.032C378.769 44.192 381.393 34.848 381.393 20C381.393 17.12 381.297 14.144 381.105 11.072C380.913 7.936 380.657 4.8 380.337 1.664ZM514.368 1.664H526.848V56H514.368V1.664ZM453.312 56V1.664H465.792V52.544L461.376 46.784H484.608C488 46.784 490.656 45.952 492.576 44.288C494.496 42.56 495.456 40.224 495.456 37.28C495.456 34.272 494.496 31.936 492.576 30.272C490.656 28.544 488 27.68 484.608 27.68H461.76V18.752H486.24C490.656 18.752 494.496 19.552 497.76 21.152C501.024 22.688 503.552 24.864 505.344 27.68C507.2 30.432 508.128 33.664 508.128 37.376C508.128 41.088 507.2 44.352 505.344 47.168C503.552 49.984 501.024 52.16 497.76 53.696C494.496 55.232 490.688 56 486.336 56H453.312ZM540.124 56V1.664H552.604V50.144L548.764 46.4H583.324L581.212 50.144V1.664H593.692V50.144L590.62 46.4H626.14L622.3 50.144V1.664H634.78V56H540.124Z" fill="white"/>
</mask>
<g mask="url(#mask0_0_1)">
<rect x="-2" width="639" height="65" fill="url(#paint0_linear_0_1)"/>
</g>
<defs>
<linearGradient id="paint0_linear_0_1" x1="-2" y1="32.5" x2="637" y2="32.5" gradientUnits="userSpaceOnUse">
<stop stop-color="#00FF26"/>
<stop offset="0.336538" stop-color="#FFD900"/>
<stop offset="0.6875" stop-color="#FF0000"/>
<stop offset="1" stop-color="#FF00FB"/>
</linearGradient>
</defs>
</svg>
