<svg width="644" height="111" viewBox="0 0 644 111" fill="none" xmlns="http://www.w3.org/2000/svg">
<mask id="mask0_1_62" style="mask-type:alpha" maskUnits="userSpaceOnUse" x="2" y="40" width="635" height="70">
<path d="M31.968 97.344C26.208 97.344 21.152 96.576 16.8 95.04C12.512 93.504 9.12 91.296 6.624 88.416C4.192 85.536 2.848 82.112 2.592 78.144H14.688C15.2 81.28 16.928 83.68 19.872 85.344C22.88 86.944 26.912 87.744 31.968 87.744C36.832 87.744 40.64 87.104 43.392 85.824C46.144 84.48 47.52 82.432 47.52 79.68C47.52 77.44 46.368 75.776 44.064 74.688C41.824 73.6 38.24 73.056 33.312 73.056H22.56V64.416H33.024C37.44 64.416 40.704 63.744 42.816 62.4C44.992 61.056 46.08 59.392 46.08 57.408C46.08 54.976 44.8 53.12 42.24 51.84C39.68 50.56 36.32 49.92 32.16 49.92C27.552 49.92 23.808 50.656 20.928 52.128C18.048 53.6 16.352 55.808 15.84 58.752H3.744C4.064 55.296 5.376 52.192 7.68 49.44C10.048 46.624 13.344 44.416 17.568 42.816C21.792 41.152 26.816 40.32 32.64 40.32C37.952 40.32 42.56 40.992 46.464 42.336C50.368 43.68 53.376 45.536 55.488 47.904C57.664 50.208 58.752 52.864 58.752 55.872C58.752 58.304 57.984 60.544 56.448 62.592C54.976 64.64 52.64 66.272 49.44 67.488C46.304 68.704 42.24 69.312 37.248 69.312V67.68C44.544 67.424 50.208 68.416 54.24 70.656C58.272 72.832 60.288 76.096 60.288 80.448C60.288 83.712 59.168 86.624 56.928 89.184C54.752 91.744 51.552 93.76 47.328 95.232C43.104 96.64 37.984 97.344 31.968 97.344ZM121.343 96L119.231 75.84L121.727 68.832L119.231 61.92L121.343 41.664H134.207L131.327 68.832L134.207 96H121.343ZM125.183 68.832C123.967 74.528 121.951 79.52 119.135 83.808C116.319 88.096 112.831 91.424 108.671 93.792C104.575 96.16 99.9993 97.344 94.9433 97.344C89.6313 97.344 84.9273 96.16 80.8313 93.792C76.7353 91.36 73.5353 88 71.2313 83.712C68.9273 79.424 67.7753 74.464 67.7753 68.832C67.7753 63.136 68.9273 58.176 71.2313 53.952C73.5353 49.664 76.7353 46.336 80.8313 43.968C84.9273 41.536 89.6313 40.32 94.9433 40.32C99.9993 40.32 104.575 41.504 108.671 43.872C112.831 46.24 116.319 49.568 119.135 53.856C122.015 58.08 124.031 63.072 125.183 68.832ZM80.4473 68.832C80.4473 72.48 81.1833 75.712 82.6553 78.528C84.1913 81.28 86.2713 83.456 88.8953 85.056C91.5193 86.592 94.5273 87.36 97.9193 87.36C101.375 87.36 104.575 86.592 107.519 85.056C110.463 83.456 113.055 81.28 115.295 78.528C117.599 75.712 119.423 72.48 120.767 68.832C119.423 65.184 117.599 61.984 115.295 59.232C113.055 56.416 110.463 54.24 107.519 52.704C104.575 51.104 101.375 50.304 97.9193 50.304C94.5273 50.304 91.5193 51.104 88.8953 52.704C86.2713 54.24 84.1913 56.416 82.6553 59.232C81.1833 61.984 80.4473 65.184 80.4473 68.832ZM146.218 96V41.664H164.746L187.594 90.048H182.698L205.354 41.664H223.882V96H212.17V45.792H215.434L191.146 96H178.954L154.666 45.984L157.93 45.888V96H146.218ZM237.155 96V41.664H249.635V85.44L245.891 84.096L280.547 41.664H294.755L248.675 96H237.155ZM281.891 96L264.995 69.12L273.731 61.248L296.483 96H281.891ZM351.031 96L348.919 75.84L351.415 68.832L348.919 61.92L351.031 41.664H363.895L361.015 68.832L363.895 96H351.031ZM354.871 68.832C353.655 74.528 351.639 79.52 348.823 83.808C346.007 88.096 342.519 91.424 338.359 93.792C334.263 96.16 329.687 97.344 324.631 97.344C319.319 97.344 314.615 96.16 310.519 93.792C306.423 91.36 303.223 88 300.919 83.712C298.615 79.424 297.463 74.464 297.463 68.832C297.463 63.136 298.615 58.176 300.919 53.952C303.223 49.664 306.423 46.336 310.519 43.968C314.615 41.536 319.319 40.32 324.631 40.32C329.687 40.32 334.263 41.504 338.359 43.872C342.519 46.24 346.007 49.568 348.823 53.856C351.703 58.08 353.719 63.072 354.871 68.832ZM310.135 68.832C310.135 72.48 310.871 75.712 312.343 78.528C313.879 81.28 315.959 83.456 318.583 85.056C321.207 86.592 324.215 87.36 327.607 87.36C331.063 87.36 334.263 86.592 337.207 85.056C340.151 83.456 342.743 81.28 344.983 78.528C347.287 75.712 349.111 72.48 350.455 68.832C349.111 65.184 347.287 61.984 344.983 59.232C342.743 56.416 340.151 54.24 337.207 52.704C334.263 51.104 331.063 50.304 327.607 50.304C324.215 50.304 321.207 51.104 318.583 52.704C315.959 54.24 313.879 56.416 312.343 59.232C310.871 61.984 310.135 65.184 310.135 68.832ZM446.273 86.4V109.728H435.425V96H381.089V109.728H370.241V86.4H384.257L387.713 86.592H427.361L430.433 86.4H446.273ZM382.337 41.664H436.193V92.352H423.713V45.504L429.473 51.264H388.865L394.241 47.04C394.561 49.856 394.753 52.576 394.817 55.2C394.945 57.76 395.009 60.16 395.009 62.4C395.009 71.744 393.729 79.072 391.169 84.384C388.673 89.696 385.153 92.352 380.609 92.352L375.521 88.032C380.769 84.192 383.393 74.848 383.393 60C383.393 57.12 383.297 54.144 383.105 51.072C382.913 47.936 382.657 44.8 382.337 41.664ZM516.368 41.664H528.848V96H516.368V41.664ZM455.312 96V41.664H467.792V92.544L463.376 86.784H486.608C490 86.784 492.656 85.952 494.576 84.288C496.496 82.56 497.456 80.224 497.456 77.28C497.456 74.272 496.496 71.936 494.576 70.272C492.656 68.544 490 67.68 486.608 67.68H463.76V58.752H488.24C492.656 58.752 496.496 59.552 499.76 61.152C503.024 62.688 505.552 64.864 507.344 67.68C509.2 70.432 510.128 73.664 510.128 77.376C510.128 81.088 509.2 84.352 507.344 87.168C505.552 89.984 503.024 92.16 499.76 93.696C496.496 95.232 492.688 96 488.336 96H455.312ZM542.124 96V41.664H554.604V90.144L550.764 86.4H585.324L583.212 90.144V41.664H595.692V90.144L592.62 86.4H628.14L624.3 90.144V41.664H636.78V96H542.124Z" fill="white"/>
</mask>
<g mask="url(#mask0_1_62)">
<rect y="38" width="639" height="73" fill="url(#paint0_linear_1_62)"/>
</g>
<defs>
<linearGradient id="paint0_linear_1_62" x1="0" y1="74.5" x2="639" y2="74.5" gradientUnits="userSpaceOnUse">
<stop stop-color="#00FF26"/>
<stop offset="0.336538" stop-color="#FFD900"/>
<stop offset="0.6875" stop-color="#FF0000"/>
<stop offset="1" stop-color="#FF00FB"/>
</linearGradient>
</defs>
</svg>
